<?xml version="1.0" ?>
<!DOCTYPE svg  PUBLIC '-//W3C//DTD SVG 1.1//EN'  'http://www.w3.org/Graphics/SVG/1.1/DTD/svg11.dtd'>
<!-- Uploaded to: SVG Repo, www.svgrepo.com, Generator: SVG Repo Mixer Tools -->
<svg width="800px" height="800px" viewBox="0 0 512 512" version="1.1" xml:space="preserve" xmlns="http://www.w3.org/2000/svg" xmlns:xlink="http://www.w3.org/1999/xlink">
<g id="_x35_77_x2C__fireworks_x2C__celebration_x2C__heart_x2C__love">
<g>
<path d="M185.508,383.263c10,0,18.12,8.119,18.12,18.13c0,10-8.12,18.12-18.12,18.12    c-10.01,0-18.13-8.12-18.13-18.12C167.378,391.382,175.499,383.263,185.508,383.263z" style="fill:#FFD15C;"/>
<path d="M181.854,395.763c9.486,0,17.268,7.311,18.043,16.606c2.331-3.049,3.732-6.846,3.732-10.977    c0-10.011-8.12-18.13-18.12-18.13c-10.01,0-18.13,8.119-18.13,18.13c0,0.512,0.035,1.015,0.077,1.517    C170.769,398.573,175.978,395.763,181.854,395.763z" style="fill:#EAB94E;"/>
<path d="M351.339,398.853c6.97,6.96,7,18.229,0.08,25.149c-6.27,6.271-12.56,6.261-22.01,3.09    c3.17,9.44,3.189,15.73-3.08,22c-6.94,6.94-18.21,6.9-25.17-0.06c-12.61-12.61-7.24-32.35-7.311-57.51    C318.999,391.592,338.729,386.232,351.339,398.853z" style="fill:#EF3E5C;"/>
<path d="M300.599,402.46c23.974,0.066,43.017-4.788,55.668,5.687c-0.648-3.402-2.288-6.657-4.928-9.294    c-12.609-12.62-32.34-7.261-57.49-7.33c0.07,25.16-5.3,44.899,7.311,57.51c0.111,0.111,0.233,0.206,0.348,0.314    C297.623,437.277,300.651,421.406,300.599,402.46z" style="fill:#E42A53;"/>
<path d="M443.099,179.012c6.94,6.94,6.9,18.21-0.06,25.17c-12.62,12.62-32.36,7.24-57.51,7.31    c0.069-25.15-5.29-44.88,7.319-57.49c6.971-6.97,18.24-7,25.16-0.08c6.271,6.28,6.25,12.57,3.08,22.01    C430.539,172.762,436.829,172.742,443.099,179.012z" style="fill:#EF3E5C;"/>
<g>
<g>
<g>
<path d="M400.349,162.752c5.949-5.949,15.021-6.824,21.857-2.656c-0.82-2.128-2.179-4.152-4.197-6.174       c-6.92-6.92-18.189-6.89-25.16,0.08c-12.609,12.61-7.25,32.34-7.319,57.49c2.5-0.007,4.944,0.041,7.336,0.119       C392.086,190.559,389.22,173.881,400.349,162.752z" style="fill:#E42A53;"/>
</g>
</g>
</g>
<path d="M321.419,75.182c10.01,0,18.13,8.11,18.13,18.12c0,10.01-8.12,18.13-18.13,18.13    c-10,0-18.12-8.12-18.12-18.13C303.299,83.292,311.419,75.182,321.419,75.182z" style="fill:#FFD15C;"/>
<path d="M324.164,85.304c6.48,0,12.152,3.41,15.358,8.523c0.005-0.176,0.026-0.348,0.026-0.525    c0-10.01-8.12-18.12-18.13-18.12c-10,0-18.12,8.11-18.12,18.12c0,3.53,1.025,6.814,2.771,9.6    C306.35,93.136,314.34,85.304,324.164,85.304z" style="fill:#EAB94E;"/>
<path d="M243.479,229.222c13.04,0,23.58,10.53,23.58,23.57s-10.54,23.58-23.58,23.58    c-13.03,0-23.57-10.54-23.57-23.58S230.449,229.222,243.479,229.222z" style="fill:#FFD15C;"/>
<path d="M238.474,241.722c13.04,0,23.58,10.53,23.58,23.571c0,0.729-0.038,1.448-0.103,2.159    c3.195-4.022,5.107-9.113,5.107-14.66c0-13.04-10.54-23.57-23.58-23.57c-12.303,0-22.38,9.389-23.468,21.414    C224.326,245.203,230.986,241.722,238.474,241.722z" style="fill:#EAB94E;"/>
<path d="M85.829,183.922c10.01,0,18.12,8.11,18.12,18.12c0,10.01-8.11,18.12-18.12,18.12    c-10.01,0-18.12-8.11-18.12-18.12C67.708,192.032,75.818,183.922,85.829,183.922z" style="fill:#FFD15C;"/>
<path d="M83.162,192.982c10.01,0,18.12,8.11,18.12,18.12c0,0.136-0.017,0.267-0.02,0.401    c1.693-2.756,2.687-5.988,2.687-9.461c0-10.01-8.11-18.12-18.12-18.12c-9.875,0-17.884,7.896-18.1,17.718    C70.916,196.452,76.625,192.982,83.162,192.982z" style="fill:#EAB94E;"/>
<path d="M119.148,62.972c12.61,12.61,7.24,32.35,7.31,57.51c-25.16-0.07-44.88,5.29-57.5-7.33    c-6.96-6.96-6.99-18.23-0.07-25.15c6.27-6.28,12.56-6.26,22-3.09c-3.17-9.44-3.19-15.73,3.09-22    C100.918,55.972,112.179,56.002,119.148,62.972z" style="fill:#EF3E5C;"/>
<g>
<g>
<g>
<path d="M119.148,62.972c-6.97-6.97-18.23-7-25.17-0.06c-2.671,2.667-4.193,5.339-4.827,8.254       c6.966-5.289,16.944-4.747,23.33,1.639c10.933,10.933,8.352,27.23,7.517,47.769c2.112-0.061,4.264-0.098,6.46-0.092       C126.389,95.322,131.758,75.582,119.148,62.972z" style="fill:#E42A53;"/>
</g>
</g>
</g>
<path d="M243.479,171.772c-2.761,0-5-2.239-5-5v-53.51c0-2.761,2.239-5,5-5s5,2.239,5,5v53.51    C248.479,169.533,246.24,171.772,243.479,171.772z" style="fill:#FFD15C;"/>
<path d="M243.479,208.852c-2.761,0-5-2.239-5-5v-10.87c0-2.761,2.239-5,5-5s5,2.239,5,5v10.87    C248.479,206.613,246.24,208.852,243.479,208.852z" style="fill:#FFD15C;"/>
<path d="M304.109,197.172c-1.272,0-2.545-0.482-3.52-1.449c-1.962-1.944-1.976-5.11-0.032-7.071    l37.93-38.27c1.944-1.961,5.111-1.976,7.071-0.032c1.962,1.944,1.976,5.11,0.032,7.071l-37.93,38.27    C306.684,196.678,305.396,197.172,304.109,197.172z" style="fill:#FFD15C;"/>
<path d="M278.009,223.262c-1.281,0-2.562-0.489-3.538-1.467c-1.951-1.954-1.949-5.12,0.005-7.071l7.62-7.61    c1.954-1.951,5.121-1.949,7.071,0.005c1.951,1.954,1.949,5.12-0.005,7.071l-7.62,7.61    C280.566,222.774,279.287,223.262,278.009,223.262z" style="fill:#FFD15C;"/>
<path d="M383.009,257.793h-53.84c-2.762,0-5-2.24-5-5.001s2.238-5,5-5h53.84c2.762,0,5,2.239,5,5    S385.771,257.793,383.009,257.793z" style="fill:#FFD15C;"/>
<path d="M303.299,257.793h-10.87c-2.762,0-5-2.24-5-5.001s2.238-5,5-5h10.87c2.762,0,5,2.239,5,5    S306.061,257.793,303.299,257.793z" style="fill:#FFD15C;"/>
<path d="M342.039,356.353c-1.279,0-2.56-0.488-3.535-1.465l-37.93-37.931c-1.953-1.952-1.953-5.118,0-7.07    c1.951-1.953,5.119-1.953,7.07,0l37.93,37.931c1.953,1.952,1.953,5.118,0,7.07C344.599,355.864,343.318,356.353,342.039,356.353z" style="fill:#FFD15C;"/>
<path d="M285.629,299.942c-1.279,0-2.56-0.488-3.535-1.465l-7.62-7.62c-1.953-1.952-1.953-5.118,0-7.07    c1.951-1.953,5.119-1.953,7.07,0l7.62,7.62c1.953,1.952,1.953,5.118,0,7.07C288.188,299.454,286.908,299.942,285.629,299.942z" style="fill:#FFD15C;"/>
<path d="M243.479,397.322c-2.761,0-5-2.238-5-5v-53.84c0-2.762,2.239-5,5-5s5,2.238,5,5v53.84    C248.479,395.084,246.24,397.322,243.479,397.322z" style="fill:#FFD15C;"/>
<path d="M243.479,317.612c-2.761,0-5-2.238-5-5v-10.87c0-2.762,2.239-5,5-5s5,2.238,5,5v10.87    C248.479,315.374,246.24,317.612,243.479,317.612z" style="fill:#FFD15C;"/>
<path d="M144.588,356.353c-1.287,0-2.574-0.494-3.551-1.48c-1.944-1.961-1.93-5.127,0.032-7.07    l38.27-37.931c1.96-1.944,5.127-1.931,7.071,0.031c1.944,1.961,1.93,5.127-0.032,7.07l-38.27,37.931    C147.133,355.87,145.861,356.353,144.588,356.353z" style="fill:#FFD15C;"/>
<path d="M201.338,299.942c-1.279,0-2.557-0.487-3.533-1.462c-1.954-1.951-1.956-5.117-0.004-7.071    l7.61-7.62c1.951-1.953,5.117-1.956,7.071-0.005c1.954,1.951,1.956,5.117,0.004,7.071l-7.61,7.62    C203.9,299.453,202.619,299.942,201.338,299.942z" style="fill:#FFD15C;"/>
<path d="M157.458,257.793h-53.51c-2.761,0-5-2.24-5-5.001s2.239-5,5-5h53.51c2.761,0,5,2.239,5,5    S160.22,257.793,157.458,257.793z" style="fill:#FFD15C;"/>
<path d="M194.539,257.793h-10.87c-2.761,0-5-2.24-5-5.001s2.239-5,5-5h10.87c2.761,0,5,2.239,5,5    S197.3,257.793,194.539,257.793z" style="fill:#FFD15C;"/>
<path d="M182.858,197.172c-1.28,0-2.559-0.488-3.536-1.464l-38.27-38.27c-1.953-1.953-1.953-5.119,0-7.071    c1.953-1.952,5.118-1.952,7.071,0l38.27,38.27c1.953,1.953,1.953,5.119,0,7.071C185.417,196.684,184.138,197.172,182.858,197.172z    " style="fill:#FFD15C;"/>
<path d="M208.949,223.262c-1.28,0-2.559-0.488-3.536-1.464l-7.61-7.61c-1.953-1.953-1.953-5.118,0-7.071    c1.952-1.952,5.118-1.952,7.071,0l7.61,7.61c1.953,1.953,1.953,5.118,0,7.071C211.508,222.773,210.229,223.262,208.949,223.262z" style="fill:#FFD15C;"/>
</g>
</g>
<g id="Layer_1"/>
</svg>